<?xml version="1.0" standalone="no"?>
<svg width="639" height="816" viewBox="0 0 426 544" xmlns="http://www.w3.org/2000/svg">
<title>Poiuyt (blivet).</title>
<g transform="translate(204,570) rotate(-60) scale(0.1,-0.1)" stroke="#000000" stroke-width="46">
<g fill="#d0d0d0" fill-opacity="0.5"><path d="M474.343,689.423
C474.343,759.49,444.077,800,400,800
C381.941,800,361.564,793.2,340,778.846
C265.804,729.459,205.657,609.351,205.657,510.577
C205.657,440.51,235.923,400,280,400
C298.059,400,318.436,406.8,340,421.154
C414.196,470.541,474.343,590.649,474.343,689.423Z
M474.343,1489.423
C474.343,1559.49,444.077,1600,400,1600
C381.941,1600,361.564,1593.2,340,1578.846
C265.804,1529.459,205.657,1409.351,205.657,1310.577
C205.657,1240.51,235.923,1200,280,1200
C298.059,1200,318.436,1206.8,340,1221.154
C414.196,1270.541,474.343,1390.649,474.343,1489.423Z
M474.343,2289.423
C474.343,2359.49,444.077,2400,400,2400
C381.941,2400,361.564,2393.2,340,2378.846
C265.804,2329.459,205.657,2209.351,205.657,2110.577
C205.657,2040.51,235.923,2000,280,2000
C298.059,2000,318.436,2006.8,340,2021.154
C414.196,2070.541,474.343,2190.649,474.343,2289.423Z"/>
<path stroke="none" d="M4400,2000V1200H4200V1600Z"/></g>
<path fill="none" d="M400,2400H5000V800L4800,400H280
M280,2000H4400V1200H280M4400,2000L4200,1600V1200
M5000,800H400M4200,1600H400"/></g></svg>
